<svg xmlns="http://www.w3.org/2000/svg" viewBox="0 0 320 240" role="img" aria-labelledby="title desc">
  <title id="title">一等奖礼盒</title>
  <desc id="desc">金色背景上的婚礼礼盒插画</desc>
  <defs>
    <linearGradient id="bg" x1="0" y1="0" x2="1" y2="1">
      <stop stop-color="#fff2b8"/>
      <stop offset="1" stop-color="#f6b944"/>
    </linearGradient>
  </defs>
  <rect width="320" height="240" rx="30" fill="url(#bg)"/>
  <circle cx="160" cy="105" r="74" fill="#fff" opacity=".36"/>
  <rect x="98" y="99" width="124" height="87" rx="10" fill="#fff8df" stroke="#9b6812" stroke-width="6"/>
  <rect x="88" y="79" width="144" height="35" rx="9" fill="#fff8df" stroke="#9b6812" stroke-width="6"/>
  <path d="M160 80c-31-2-52-12-52-29 0-12 10-20 23-20 18 0 29 18 29 49Zm0 0c31-2 52-12 52-29 0-12-10-20-23-20-18 0-29 18-29 49Z" fill="#fff8df" stroke="#9b6812" stroke-width="6" stroke-linejoin="round"/>
  <path d="M160 80v106" stroke="#e78b33" stroke-width="15"/>
  <text x="160" y="220" text-anchor="middle" font-family="sans-serif" font-size="25" font-weight="700" fill="#6d4710">一等奖</text>
</svg>
